HIERARCHY
ROOT Hip
{
	OFFSET	0.0000	0.0000	0.0000
	CHANNELS 6 Xposition Yposition Zposition Xrotation Yrotation Zrotation
	JOINT LowerSpine
	{
		OFFSET	0.0000	9.2812	-5.5247
		CHANNELS 3 Xrotation Yrotation Zrotation
		JOINT MiddleSpine
		{
			OFFSET	0.0000	8.4698	0.3983
			CHANNELS 3 Xrotation Yrotation Zrotation
			JOINT Chest
			{
				OFFSET	0.0000	10.4803	-2.0995
				CHANNELS 3 Xrotation Yrotation Zrotation
				JOINT Neck
				{
					OFFSET	0.0000	23.6171	-0.4420
					CHANNELS 3 Xrotation Yrotation Zrotation
					JOINT Head
					{
						OFFSET	-0.0001	13.3369	3.6276
						CHANNELS 3 Xrotation Yrotation Zrotation
						End Site
						{
							OFFSET	0.0001	18.6349	0.5563
						}
					}
				}
				JOINT LClavicle
				{
					OFFSET	2.1459	22.7917	7.0277
					CHANNELS 3 Xrotation Yrotation Zrotation
					JOINT LShoulder
					{
						OFFSET	12.5367	3.2691	-5.2898
						CHANNELS 3 Xrotation Yrotation Zrotation
						JOINT LForearm
						{
							OFFSET	29.5893	-0.1049	-0.2564
							CHANNELS 3 Xrotation Yrotation Zrotation
							JOINT LHand
							{
								OFFSET	24.6837	0.0716	-0.1479
								CHANNELS 3 Xrotation Yrotation Zrotation
								JOINT LFinger1
								{
									OFFSET	9.5667	0.8367	2.6571
									CHANNELS 3 Xrotation Yrotation Zrotation
									JOINT LFinger11
									{
										OFFSET	3.5784	-0.8726	0.6305
										CHANNELS 3 Xrotation Yrotation Zrotation
										JOINT LFinger12
										{
											OFFSET	2.4429	-0.5958	0.4306
											CHANNELS 3 Xrotation Yrotation Zrotation
											End Site
											{
												OFFSET	1.7384	-0.5189	0.2820
											}
										}
									}
								}
								JOINT LFinger2
								{
									OFFSET	9.7095	0.9662	0.2313
									CHANNELS 3 Xrotation Yrotation Zrotation
									JOINT LFinger21
									{
										OFFSET	4.4245	0.0123	-0.0261
										CHANNELS 3 Xrotation Yrotation Zrotation
										JOINT LFinger22
										{
											OFFSET	2.4525	0.0075	-0.0149
											CHANNELS 3 Xrotation Yrotation Zrotation
											End Site
											{
												OFFSET	2.2028	-0.1556	0.0030
											}
										}
									}
								}
								JOINT LFinger3
								{
									OFFSET	9.2018	0.6448	-2.1770
									CHANNELS 3 Xrotation Yrotation Zrotation
									JOINT LFinger31
									{
										OFFSET	4.0148	-0.2033	-0.2514
										CHANNELS 3 Xrotation Yrotation Zrotation
										JOINT LFinger32
										{
											OFFSET	2.2878	-0.1151	-0.1437
											CHANNELS 3 Xrotation Yrotation Zrotation
											End Site
											{
												OFFSET	2.0228	-0.2487	-0.0956
											}
										}
									}
								}
								JOINT LFinger4
								{
									OFFSET	8.5389	-0.6489	-3.7596
									CHANNELS 3 Xrotation Yrotation Zrotation
									JOINT LFinger41
									{
										OFFSET	2.4695	-0.5150	-0.6817
										CHANNELS 3 Xrotation Yrotation Zrotation
										JOINT LFinger42
										{
											OFFSET	1.8109	-0.3771	-0.5002
											CHANNELS 3 Xrotation Yrotation Zrotation
											End Site
											{
												OFFSET	1.6073	-0.4416	-0.3688
											}
										}
									}
								}
								JOINT LFinger0
								{
									OFFSET	1.9790	-1.4979	1.5003
									CHANNELS 3 Xrotation Yrotation Zrotation
									JOINT LFinger01
									{
										OFFSET	3.6846	-1.2100	2.7780
										CHANNELS 3 Xrotation Yrotation Zrotation
										JOINT LFinger02
										{
											OFFSET	2.4262	-0.8682	1.7480
											CHANNELS 3 Xrotation Yrotation Zrotation
											End Site
											{
												OFFSET	1.7842	-0.6142	1.2217
											}
										}
									}
								}
							}
						}
					}
				}
				JOINT RClavicle
				{
					OFFSET	-2.1459	22.7917	7.0277
					CHANNELS 3 Xrotation Yrotation Zrotation
					JOINT RShoulder
					{
						OFFSET	-12.5389	3.2697	-5.2907
						CHANNELS 3 Xrotation Yrotation Zrotation
						JOINT RForearm
						{
							OFFSET	-29.5893	-0.1049	-0.2564
							CHANNELS 3 Xrotation Yrotation Zrotation
							JOINT RHand
							{
								OFFSET	-24.6837	0.0716	-0.1479
								CHANNELS 3 Xrotation Yrotation Zrotation
								JOINT RFinger1
								{
									OFFSET	-9.5668	0.8368	2.6571
									CHANNELS 3 Xrotation Yrotation Zrotation
									JOINT RFinger11
									{
										OFFSET	-3.5784	-0.8726	0.6305
										CHANNELS 3 Xrotation Yrotation Zrotation
										JOINT RFinger12
										{
											OFFSET	-2.4429	-0.5960	0.4306
											CHANNELS 3 Xrotation Yrotation Zrotation
											End Site
											{
												OFFSET	-1.7384	-0.5189	0.2820
											}
										}
									}
								}
								JOINT RFinger2
								{
									OFFSET	-9.7095	0.9662	0.2314
									CHANNELS 3 Xrotation Yrotation Zrotation
									JOINT RFinger21
									{
										OFFSET	-4.4245	0.0124	-0.0261
										CHANNELS 3 Xrotation Yrotation Zrotation
										JOINT RFinger22
										{
											OFFSET	-2.4525	0.0075	-0.0150
											CHANNELS 3 Xrotation Yrotation Zrotation
											End Site
											{
												OFFSET	-2.2028	-0.1556	0.0030
											}
										}
									}
								}
								JOINT RFinger3
								{
									OFFSET	-9.2018	0.6449	-2.1770
									CHANNELS 3 Xrotation Yrotation Zrotation
									JOINT RFinger31
									{
										OFFSET	-4.0148	-0.2033	-0.2514
										CHANNELS 3 Xrotation Yrotation Zrotation
										JOINT RFinger32
										{
											OFFSET	-2.2879	-0.1151	-0.1437
											CHANNELS 3 Xrotation Yrotation Zrotation
											End Site
											{
												OFFSET	-2.0228	-0.2487	-0.0956
											}
										}
									}
								}
								JOINT RFinger4
								{
									OFFSET	-8.5389	-0.6489	-3.7596
									CHANNELS 3 Xrotation Yrotation Zrotation
									JOINT RFinger41
									{
										OFFSET	-2.4695	-0.5150	-0.6817
										CHANNELS 3 Xrotation Yrotation Zrotation
										JOINT RFinger42
										{
											OFFSET	-1.8109	-0.3770	-0.5002
											CHANNELS 3 Xrotation Yrotation Zrotation
											End Site
											{
												OFFSET	-1.6073	-0.4416	-0.3688
											}
										}
									}
								}
								JOINT RFinger0
								{
									OFFSET	-1.9790	-1.4978	1.5002
									CHANNELS 3 Xrotation Yrotation Zrotation
									JOINT RFinger01
									{
										OFFSET	-3.6846	-1.2102	2.7781
										CHANNELS 3 Xrotation Yrotation Zrotation
										JOINT RFinger02
										{
											OFFSET	-2.4262	-0.8681	1.7480
											CHANNELS 3 Xrotation Yrotation Zrotation
											End Site
											{
												OFFSET	-1.7842	-0.6142	1.2217
											}
										}
									}
								}
							}
						}
					}
				}
			}
		}
	}
	JOINT RThigh
	{
		OFFSET	-10.9736	4.1953	-0.9002
		CHANNELS 3 Xrotation Yrotation Zrotation
		JOINT RShin
		{
			OFFSET	-0.7945	-43.1846	0.0000
			CHANNELS 3 Xrotation Yrotation Zrotation
			JOINT RFoot
			{
				OFFSET	0.0000	-42.4047	0.0000
				CHANNELS 3 Xrotation Yrotation Zrotation
				JOINT RToe
				{
					OFFSET	0.0000	-4.6606	9.7460
					CHANNELS 3 Xrotation Yrotation Zrotation
					End Site
					{
						OFFSET	0.0000	0.0000	6.5382
					}
				}
			}
		}
	}
	JOINT LThigh
	{
		OFFSET	10.9735	4.1956	-0.9002
		CHANNELS 3 Xrotation Yrotation Zrotation
		JOINT LShin
		{
			OFFSET	0.7945	-43.1849	0.0000
			CHANNELS 3 Xrotation Yrotation Zrotation
			JOINT LFoot
			{
				OFFSET	0.0000	-42.4047	0.0000
				CHANNELS 3 Xrotation Yrotation Zrotation
				JOINT LToe
				{
					OFFSET	0.0000	-4.6607	9.7461
					CHANNELS 3 Xrotation Yrotation Zrotation
					End Site
					{
						OFFSET	0.0000	0.0000	6.5382
					}
				}
			}
		}
	}
}
MOTION
Frames:	4
Frame Time: 0.0333333000
	-27.1975	79.8596	-63.4620	2.600918	-6.490498	-1.516263	0.000000	0.000000	0.000000	0.428214	0.431888	-0.861162	1.451786	1.414939	-2.884268	-12.425320	0.252810	-0.691865	-19.274580	-1.868755	9.056135	0.000000	0.000000	-14.227030	17.085420	-44.700730	-48.337250	0.025237	-8.720976	-0.001186	0.000000	0.000000	0.000000	0.000000	0.000000	0.000000	0.000000	0.000000	0.000000	0.000000	0.000000	0.000000	0.000000	0.000000	0.000000	0.000000	0.000000	0.000000	0.000000	0.000000	0.000000	0.000000	0.000000	0.000000	0.000000	0.000000	0.000000	0.000000	0.000000	0.000000	0.000000	0.000000	0.000000	0.000000	0.000000	0.000000	0.000000	0.000000	0.000000	0.000000	0.000000	0.000000	0.000000	0.000000	0.000000	0.000000	0.000000	0.000000	0.000000	0.000000	15.123010	22.769620	62.489210	47.713040	0.000000	0.004100	0.000000	0.000000	0.000000	0.000000	0.000000	0.000000	0.000000	0.000000	0.000000	0.000000	0.000000	0.000000	0.000000	0.000000	0.000000	0.000000	0.000000	0.000000	0.000000	0.000000	0.000000	0.000000	0.000000	0.000000	0.000000	0.000000	0.000000	0.000000	0.000000	0.000000	0.000000	0.000000	0.000000	0.000000	0.000000	0.000000	0.000000	0.000000	0.000000	0.000000	0.000000	0.000000	0.000000	0.000000	0.000000	0.000000	0.000000	0.000000	0.000000	-6.527972	-0.782195	4.090175	3.252381	0.000000	0.000000	1.007801	0.635613	0.295343	0.000000	0.000000	0.000000	-0.952104	1.086090	2.348104	0.247915	0.000000	0.000000	-2.405302	0.678652	0.340208	0.000000	0.000000	0.000000
	-27.5134	79.7511	-63.2111	2.548743	-6.383884	-1.427466	0.000000	0.000000	0.000000	0.388901	0.313796	-0.894671	1.312315	1.022261	-2.989437	-10.455140	-0.172023	0.427361	-13.750400	-1.219412	7.851258	0.000000	0.000000	-14.129780	19.864740	-46.599280	-46.106380	0.024552	-8.680039	-0.001112	0.000000	0.000000	0.000000	0.000000	0.000000	0.000000	0.000000	0.000000	0.000000	0.000000	0.000000	0.000000	0.000000	0.000000	0.000000	0.000000	0.000000	0.000000	0.000000	0.000000	0.000000	0.000000	0.000000	0.000000	0.000000	0.000000	0.000000	0.000000	0.000000	0.000000	0.000000	0.000000	0.000000	0.000000	0.000000	0.000000	0.000000	0.000000	0.000000	0.000000	0.000000	0.000000	0.000000	0.000000	0.000000	0.000000	0.000000	0.000000	0.000000	0.000000	15.321430	23.767320	62.177290	47.797270	0.000107	0.129934	0.000012	0.000000	0.000000	0.000000	0.000000	0.000000	0.000000	0.000000	0.000000	0.000000	0.000000	0.000000	0.000000	0.000000	0.000000	0.000000	0.000000	0.000000	0.000000	0.000000	0.000000	0.000000	0.000000	0.000000	0.000000	0.000000	0.000000	0.000000	0.000000	0.000000	0.000000	0.000000	0.000000	0.000000	0.000000	0.000000	0.000000	0.000000	0.000000	0.000000	0.000000	0.000000	0.000000	0.000000	0.000000	0.000000	0.000000	0.000000	0.000000	-6.389570	-0.388722	3.690168	3.431339	0.000000	0.000000	0.740932	0.314653	0.146020	0.000000	0.000000	0.000000	-1.138934	0.854465	2.346887	0.090079	0.000000	0.000000	-1.242690	0.532599	0.261635	0.000000	0.000000	0.000000
	-27.9430	79.6965	-62.8177	2.882738	-6.172606	-1.584920	0.000000	0.000000	0.000000	0.234445	0.267779	-0.838949	0.781917	0.878367	-2.794979	-8.304781	-0.438110	1.231241	-8.693207	-0.662945	6.149063	0.000000	0.000000	-13.937880	24.558660	-48.573520	-42.456200	0.025441	-9.717956	-0.000737	0.000000	0.000000	0.000000	0.000000	0.000000	0.000000	0.000000	0.000000	0.000000	0.000000	0.000000	0.000000	0.000000	0.000000	0.000000	0.000000	0.000000	0.000000	0.000000	0.000000	0.000000	0.000000	0.000000	0.000000	0.000000	0.000000	0.000000	0.000000	0.000000	0.000000	0.000000	0.000000	0.000000	0.000000	0.000000	0.000000	0.000000	0.000000	0.000000	0.000000	0.000000	0.000000	0.000000	0.000000	0.000000	0.000000	0.000000	0.000000	0.000000	0.000000	15.443480	26.521360	62.082920	46.256540	0.000924	0.725336	0.000105	0.000000	0.000000	0.000000	0.000000	0.000000	0.000000	0.000000	0.000000	0.000000	0.000000	0.000000	0.000000	0.000000	0.000000	0.000000	0.000000	0.000000	0.000000	0.000000	0.000000	0.000000	0.000000	0.000000	0.000000	0.000000	0.000000	0.000000	0.000000	0.000000	0.000000	0.000000	0.000000	0.000000	0.000000	0.000000	0.000000	0.000000	0.000000	0.000000	0.000000	0.000000	0.000000	0.000000	0.000000	0.000000	0.000000	0.000000	0.000000	-6.549863	0.006678	3.807298	3.308953	0.000000	0.000000	1.305985	0.159242	0.075024	0.000000	0.000000	0.000000	-1.611001	0.397703	2.671842	-0.385558	0.000000	0.000000	0.055862	0.358506	0.171464	0.000000	0.000000	0.000000
	-28.5175	79.5805	-62.3280	3.522634	-5.970917	-1.964138	0.000000	0.000000	0.000000	0.015031	0.303700	-0.722903	0.029507	1.009494	-2.396086	-6.311908	-0.542250	1.629666	-4.792731	-0.307754	4.287506	0.000000	0.000000	-13.687860	30.271190	-49.922540	-38.030250	0.028132	-11.659020	-0.000053	0.000000	0.000000	0.000000	0.000000	0.000000	0.000000	0.000000	0.000000	0.000000	0.000000	0.000000	0.000000	0.000000	0.000000	0.000000	0.000000	0.000000	0.000000	0.000000	0.000000	0.000000	0.000000	0.000000	0.000000	0.000000	0.000000	0.000000	0.000000	0.000000	0.000000	0.000000	0.000000	0.000000	0.000000	0.000000	0.000000	0.000000	0.000000	0.000000	0.000000	0.000000	0.000000	0.000000	0.000000	0.000000	0.000000	0.000000	0.000000	0.000000	0.000000	15.461810	30.795410	62.214970	43.173870	0.003527	1.974426	0.000346	0.000000	0.000000	0.000000	0.000000	0.000000	0.000000	0.000000	0.000000	0.000000	0.000000	0.000000	0.000000	0.000000	0.000000	0.000000	0.000000	0.000000	0.000000	0.000000	0.000000	0.000000	0.000000	0.000000	0.000000	0.000000	0.000000	0.000000	0.000000	0.000000	0.000000	0.000000	0.000000	0.000000	0.000000	0.000000	0.000000	0.000000	0.000000	0.000000	0.000000	0.000000	0.000000	0.000000	0.000000	0.000000	0.000000	0.000000	0.000000	-6.952801	0.258056	4.444551	2.991388	0.000000	0.000000	2.522019	0.187964	0.086006	0.000000	0.000000	0.000000	-2.192814	-0.158303	3.307044	-1.157889	0.000000	0.000000	1.219623	0.124854	0.057559	0.000000	0.000000	0.000000
